<svg width="3431" height="879" viewBox="0 0 3431 879" fill="none" xmlns="http://www.w3.org/2000/svg">
<g clip-path="url(#clip0_1405_5892)">
<path d="M1317.59 388.748C1317.59 388.748 1108.98 24.0001 935.412 207.5C780.912 370.836 716.5 201.5 598 155.5C470.5 111.5 416.005 337.523 264 207.5C126.682 90.0384 5.11562 226.578 -33.183 266.011L-18.183 875.549L1338.6 880.223V453.562" fill="url(#paint0_linear_1405_5892)"/>
<path d="M2410 303C2341.24 307.408 2261.5 267.421 2216 230.901C2170.5 194.381 2039.4 178.668 1957.43 230.901C1810.86 324.301 1619.5 292 1495 213.817C1360 157.5 1325.64 352.252 1174.74 213.817C1028.5 79.6528 916.3 251.784 878 292L1010 872.084L2367 876.851L2423 495.5" fill="url(#paint1_linear_1405_5892)"/>
<path d="M3471 345.497C3402.24 349.904 3322.5 309.917 3277 273.397C3231.5 236.877 3100.4 221.164 3018.43 273.397C2871.86 366.798 2680.5 334.497 2556 256.313C2421 199.997 2386.64 394.749 2235.74 256.313C2089.5 122.149 1977.3 294.281 1939 334.497L2071 914.58L3428 919.347L3484 537.997" fill="url(#paint2_linear_1405_5892)"/>
</g>
<defs>
<linearGradient id="paint0_linear_1405_5892" x1="697.303" y1="96.7888" x2="697.303" y2="668.128" gradientUnits="userSpaceOnUse">
<stop stop-color="#009DCF"/>
<stop offset="1" stop-color="#22C5C5"/>
</linearGradient>
<linearGradient id="paint1_linear_1405_5892" x1="1707.41" y1="81.1761" x2="1707.41" y2="663.862" gradientUnits="userSpaceOnUse">
<stop stop-color="#009DCF"/>
<stop offset="1" stop-color="#22C5C5"/>
</linearGradient>
<linearGradient id="paint2_linear_1405_5892" x1="2768.41" y1="123.673" x2="2768.41" y2="706.359" gradientUnits="userSpaceOnUse">
<stop stop-color="#009DCF"/>
<stop offset="1" stop-color="#22C5C5"/>
</linearGradient>
<clipPath id="clip0_1405_5892">
<rect width="3431" height="879" fill="white"/>
</clipPath>
</defs>
</svg>
